<?xml version="1.0" standalone="no"?>
<!DOCTYPE svg PUBLIC "-//W3C//DTD SVG 20010904//EN"
 "http://www.w3.org/TR/2001/REC-SVG-20010904/DTD/svg10.dtd">
<svg version="1.0" xmlns="http://www.w3.org/2000/svg"
 width="612.000000pt" height="408.000000pt" viewBox="0 0 612.000000 408.000000"
 preserveAspectRatio="xMidYMid meet">

<g transform="translate(0.000000,408.000000) scale(0.100000,-0.100000)"
fill="#ffffff" stroke="none">
<path d="M2916 3149 c-117 -17 -233 -52 -335 -101 -94 -45 -113 -59 -200 -148
-94 -97 -97 -98 -159 -110 -200 -36 -350 -116 -479 -253 -156 -167 -137 -384
47 -550 38 -35 109 -77 129 -77 28 0 127 -46 157 -73 62 -54 64 -62 57 -288
-6 -193 -5 -206 15 -244 27 -54 95 -115 162 -148 173 -83 530 -137 917 -137
l152 0 3 133 3 132 90 8 c304 27 429 55 490 108 53 47 59 86 40 243 l-16 131
28 22 c15 13 64 35 108 49 164 53 268 134 323 251 24 52 27 69 27 168 0 108
-1 113 -37 185 -55 111 -146 196 -258 240 -29 12 -98 27 -152 35 -58 8 -111
21 -128 32 -16 10 -56 56 -90 101 -111 152 -280 247 -509 287 -90 16 -289 18
-385 4z m304 -99 c262 -28 441 -131 546 -315 54 -94 86 -115 178 -115 149 0
261 -32 324 -93 74 -70 120 -210 103 -304 -32 -164 -165 -288 -311 -288 l-65
0 -3 74 c-3 87 2 94 92 145 58 32 125 91 115 100 -2 2 -42 -7 -89 -21 -169
-49 -372 -40 -570 26 -108 37 -257 106 -263 123 -12 34 12 46 118 59 85 10
105 16 103 28 -6 29 -86 44 -233 44 -179 0 -247 -19 -515 -147 -284 -136 -329
-151 -470 -151 -105 0 -121 3 -180 29 -91 39 -120 44 -120 18 0 -28 41 -74
101 -113 54 -35 69 -59 69 -116 0 -40 -23 -73 -52 -73 -35 0 -175 79 -231 130
-70 64 -97 118 -97 193 0 64 10 93 58 160 65 91 266 217 345 217 51 0 62 -20
62 -110 0 -89 12 -110 60 -110 44 0 54 15 64 96 17 131 85 263 177 342 115 98
338 170 564 180 14 1 68 -3 120 -8z m148 -1431 c234 -20 482 -78 482 -114 0
-14 -119 -41 -245 -55 -100 -11 -493 -13 -597 -3 l-68 6 0 94 0 94 158 -6 c86
-3 208 -11 270 -16z m-588 -153 l0 -154 128 -6 c70 -4 169 -9 220 -12 l92 -6
0 -59 0 -59 -112 0 c-220 0 -532 40 -654 83 -104 38 -174 94 -174 140 0 61 80
125 208 168 49 16 205 48 285 58 4 1 7 -68 7 -153z"/>
</g>
</svg>
